<svg xmlns="http://www.w3.org/2000/svg" xmlns:xlink="http://www.w3.org/1999/xlink" fill="none" version="1.1" width="160" height="160" viewBox="0 0 160 160"><g><g style="opacity:0.4000000059604645;"><g><path d="M154,137Q154,137.27,153.911,137.5397Q153.822,137.8095,153.644,138.0782Q153.466,138.3469,153.199,138.614Q152.932,138.8811,152.578,139.14600000000002Q152.224,139.4108,151.782,139.6728Q151.341,139.9347,150.814,140.1931Q150.286,140.4515,149.674,140.7058Q149.062,140.96,148.367,141.2095Q147.672,141.459,146.895,141.7031Q146.118,141.9472,145.262,142.18540000000002Q144.406,142.4235,143.472,142.6551Q142.538,142.8867,141.529,143.1113Q140.519,143.3358,139.437,143.55270000000002Q138.355,143.7696,137.203,143.9783Q136.05,144.1871,134.83,144.3871Q133.61,144.5872,132.326,144.7782Q131.041,144.9691,129.695,145.1505Q128.349,145.3318,126.945,145.5031Q125.541,145.6744,124.082,145.8353Q122.623,145.9961,121.112,146.1462Q119.602,146.2962,118.044,146.435Q116.485,146.5738,114.883,146.7011Q113.281,146.8284,111.639,146.94389999999999Q109.997,147.0593,108.319,147.1627Q106.64,147.266,104.9298,147.357Q103.2194,147.448,101.4811,147.5263Q99.7427,147.6047,97.9805,147.6703Q96.2184,147.736,94.4367,147.7886Q92.655,147.8413,90.858,147.8809Q89.0611,147.9206,87.2533,147.947Q85.4454,147.9735,83.631,147.98669999999998Q81.8166,148,80,148Q78.1834,148,76.369,147.98669999999998Q74.5546,147.9735,72.7467,147.947Q70.9389,147.9206,69.14189999999999,147.8809Q67.345,147.8413,65.5633,147.7886Q63.7816,147.736,62.0195,147.6703Q60.2573,147.6047,58.5189,147.5263Q56.7806,147.448,55.0701,147.357Q53.3597,147.266,51.6814,147.1627Q50.0031,147.0593,48.3609,146.94389999999999Q46.7187,146.8284,45.1166,146.7011Q43.5145,146.5738,41.9564,146.435Q40.3982,146.2962,38.8878,146.1462Q37.3774,145.9961,35.9182,145.8353Q34.4591,145.6744,33.0549,145.5031Q31.6506,145.3318,30.3046,145.1505Q28.9586,144.9691,27.6741,144.7782Q26.3896,144.5872,25.1696,144.3871Q23.9497,144.1871,22.7972,143.9783Q21.6448,143.7696,20.5626,143.55270000000002Q19.4805,143.3358,18.4712,143.1113Q17.462,142.8867,16.528100000000002,142.6551Q15.59416,142.4235,14.73783,142.18540000000002Q13.88149,141.9472,13.104790000000001,141.7031Q12.32809,141.459,11.632909999999999,141.2095Q10.93773,140.96,10.32574,140.7058Q9.713750000000001,140.4515,9.18641,140.1931Q8.65908,139.9347,8.217690000000001,139.6728Q7.7762899999999995,139.4108,7.42189,139.14600000000002Q7.06749,138.8811,6.800938,138.614Q6.534388,138.3469,6.35633,138.0782Q6.178272,137.8095,6.0891362,137.5397Q6,137.27,6,137Q6,136.73,6.0891362,136.4603Q6.178272,136.1905,6.35633,135.92181Q6.534388,135.65308,6.800938,135.38596Q7.06749,135.11885,7.42189,134.85399999999998Q7.7762899999999995,134.58916,8.217690000000001,134.32722Q8.65908,134.06527,9.18641,133.80687Q9.713750000000001,133.54846,10.32574,133.29421Q10.93773,133.03996,11.632909999999999,132.79048Q12.32809,132.541,13.104790000000001,132.29689Q13.88149,132.05279,14.73783,131.81464Q15.59416,131.57649,16.528100000000002,131.34487000000001Q17.462,131.11325,18.4712,130.88873Q19.4805,130.6642,20.5626,130.44731Q21.6448,130.23041,22.7972,130.02167Q23.9497,129.81293,25.1696,129.61285Q26.3896,129.41277,27.6741,129.22183Q28.9586,129.03088,30.3046,128.84954Q31.6506,128.66819,33.0549,128.49688Q34.4591,128.32558,35.9182,128.16472Q37.3774,128.00386,38.8878,127.85383Q40.3982,127.70381,41.9564,127.56499Q43.5145,127.42616,45.1166,127.29887Q46.7187,127.17157,48.3609,127.05611999999999Q50.0031,126.940663,51.6814,126.837325Q53.3597,126.733987,55.0701,126.643015Q56.7806,126.552043,58.5189,126.473656Q60.2573,126.395269,62.0195,126.329656Q63.7816,126.264043,65.5633,126.211362Q67.345,126.158681,69.14189999999999,126.119058Q70.9389,126.079436,72.7467,126.052968Q74.5546,126.0265,76.369,126.01325Q78.1834,126,80,126Q81.8166,126,83.631,126.01325Q85.4454,126.0265,87.2533,126.052968Q89.0611,126.079436,90.858,126.119058Q92.655,126.158681,94.4367,126.211362Q96.2184,126.264043,97.9805,126.329656Q99.7427,126.395269,101.4811,126.473656Q103.2194,126.552043,104.9298,126.643015Q106.64,126.733987,108.319,126.837325Q109.997,126.940663,111.639,127.05611999999999Q113.281,127.17157,114.883,127.29887Q116.485,127.42616,118.044,127.56499Q119.602,127.70381,121.112,127.85383Q122.623,128.00386,124.082,128.16472Q125.541,128.32558,126.945,128.49688Q128.349,128.66819,129.695,128.84954Q131.041,129.03088,132.326,129.22183Q133.61,129.41277,134.83,129.61285Q136.05,129.81293,137.203,130.02167Q138.355,130.23041,139.437,130.44731Q140.519,130.6642,141.529,130.88873Q142.538,131.11325,143.472,131.34487000000001Q144.406,131.57649,145.262,131.81464Q146.118,132.05279,146.895,132.29689Q147.672,132.541,148.367,132.79048Q149.062,133.03996,149.674,133.29421Q150.286,133.54846,150.814,133.80687Q151.341,134.06527,151.782,134.32722Q152.224,134.58916,152.578,134.85399999999998Q152.932,135.11885,153.199,135.38596Q153.466,135.65308,153.644,135.92181Q153.822,136.1905,153.911,136.4603Q154,136.73,154,137Z" fill="#000000" fill-opacity="0.07999999821186066"/></g><g><path d="M33,66L123,66L135,94L21,94L33,66Z" fill-rule="evenodd" fill="#BABABA" fill-opacity="1"/><path d="M33,64L123,64Q123.146,64,123.29,64.0212Q123.435,64.0424,123.575,64.08436Q123.715,64.12631,123.847,64.18813Q123.979,64.24995,124.101,64.33032Q124.223,64.41069,124.332,64.50791Q124.441,64.60512,124.534,64.71713Q124.628,64.82913,124.704,64.95355Q124.781,65.077968,124.838,65.21216L136.838,93.2122Q136.916,93.39320000000001,136.957,93.5859Q136.997,93.7786,137,93.9756Q137.002,94.1726,136.966,94.36619999999999Q136.93,94.5599,136.857,94.7428Q136.784,94.9257,136.676,95.0908Q136.56900000000002,95.2559,136.43099999999998,95.3969Q136.29399999999998,95.5378,136.131,95.6493Q135.969,95.7607,135.788,95.8383Q135.411,96,135,96L21,96Q20.9017463,96,20.803966,95.9904Q20.706185,95.9807,20.609819,95.9616Q20.513454,95.94239999999999,20.419431,95.9139Q20.325408,95.8854,20.234633,95.8478Q20.143859,95.8102,20.057207,95.7638Q19.97055,95.7175,19.88886,95.66290000000001Q19.80716,95.6083,19.73121,95.54599999999999Q19.65526,95.4837,19.58579,95.4142Q19.51631,95.3447,19.45398,95.2688Q19.39165,95.1928,19.33706,95.1111Q19.28247,95.0294,19.236159999999998,94.9428Q19.18984,94.8561,19.15224,94.7654Q19.11464,94.6746,19.08612,94.5806Q19.0576,94.4865,19.038429999999998,94.3902Q19.01926,94.2938,19.00963,94.196Q19,94.0983,19,94Q19,93.5895,19.16171,93.2122L31.1617,65.212161L31.162,65.211543Q31.2195,65.07741,31.2959,64.95305Q31.3723,64.82869,31.466,64.71674Q31.5596,64.60479,31.6685,64.50763Q31.7774,64.41046,31.8993,64.33013Q32.0212,64.24981,32.1534,64.18802Q32.2856,64.12624,32.425399999999996,64.08431Q32.565200000000004,64.04238,32.7096,64.02119Q32.854,64,33,64ZM21,94L33,66L123,66L134.143,92L135,94L21,94Z" fill-rule="evenodd" fill="#9A9A9A" fill-opacity="1"/></g><g><g><rect x="41" y="24" width="74" height="88" rx="4" fill="#FFFFFF" fill-opacity="1"/><path d="M39,28L39,108Q39,110.4853,40.757359,112.2426Q42.51471,114,45,114L111,114Q113.4853,114,115.2426,112.2426Q117,110.4853,117,108L117,28Q117,25.51471,115.2426,23.757359Q113.4853,22,111,22L45,22Q42.51472,22,40.757359,23.757359Q39,25.51472,39,28ZM41,28L41,108Q41,108.1965,41.0192611,108.3921Q41.0385222,108.5876,41.0768589,108.7804Q41.115196,108.9731,41.172239,109.1611Q41.229282,109.3492,41.304482,109.5307Q41.379682,109.7123,41.472315,109.8856Q41.564948,110.0589,41.674121,110.2223Q41.783295,110.3857,41.907958,110.5376Q42.03262,110.6895,42.17157,110.8284Q42.31052,110.9674,42.46243,111.092Q42.61433,111.2167,42.77772,111.3259Q42.94111,111.4351,43.11441,111.5277Q43.28772,111.6203,43.46927,111.6955Q43.65082,111.7707,43.83886,111.8278Q44.02691,111.8848,44.21964,111.9231Q44.41237,111.9615,44.60793,111.9807Q44.80349,112,45,112L111,112Q111.1965,112,111.3921,111.9807Q111.5876,111.9615,111.7804,111.9231Q111.9731,111.8848,112.1611,111.8278Q112.3492,111.7707,112.5307,111.6955Q112.7123,111.6203,112.8856,111.5277Q113.0589,111.4351,113.2223,111.3259Q113.3857,111.2167,113.5376,111.092Q113.6895,110.9674,113.8284,110.8284Q113.9674,110.6895,114.092,110.5376Q114.2167,110.3857,114.3259,110.2223Q114.435,110.0589,114.5277,109.8856Q114.6203,109.7123,114.6955,109.5307Q114.7707,109.3492,114.8278,109.1611Q114.8848,108.9731,114.9231,108.7804Q114.9615,108.5876,114.9807,108.3921Q115,108.1965,115,108L115,28Q115,27.80349,114.9807,27.60793Q114.9615,27.41237,114.9231,27.21964Q114.8848,27.02691,114.8278,26.83886Q114.7707,26.65082,114.6955,26.46927Q114.6203,26.28772,114.5277,26.11441Q114.435,25.94111,114.3259,25.77772Q114.2167,25.61433,114.092,25.46243Q113.9674,25.31052,113.8284,25.17157Q113.6895,25.03262,113.5376,24.907958Q113.3857,24.783295,113.2223,24.674121Q113.0589,24.564948,112.8856,24.472315Q112.7123,24.379682,112.5307,24.304482Q112.3492,24.229282,112.1611,24.172239Q111.9731,24.115196,111.7804,24.0768589Q111.5876,24.0385222,111.3921,24.0192611Q111.1965,24,111,24L45,24Q44.80349,24,44.60793,24.0192611Q44.41237,24.0385222,44.21964,24.0768589Q44.02691,24.115196,43.83886,24.172239Q43.65082,24.229282,43.46927,24.304482Q43.28772,24.379682,43.11441,24.472315Q42.94111,24.564948,42.77772,24.674121Q42.61433,24.783295,42.46243,24.907958Q42.31052,25.03262,42.17157,25.17157Q42.03262,25.31052,41.907958,25.46243Q41.783295,25.61433,41.674121,25.77772Q41.564948,25.94111,41.472315,26.11441Q41.379682,26.28772,41.304482,26.46927Q41.229282,26.65082,41.172239,26.83886Q41.115196,27.02691,41.0768589,27.21964Q41.0385222,27.41237,41.0192611,27.60793Q41,27.80349,41,28Z" fill-rule="evenodd" fill="#9A9A9A" fill-opacity="1"/></g><g><rect x="53" y="38" width="50" height="6" rx="2" fill="#C3C3C3" fill-opacity="1"/></g><g><rect x="53" y="54" width="50" height="6" rx="2" fill="#C3C3C3" fill-opacity="1"/></g><g><rect x="53" y="70" width="50" height="6" rx="2" fill="#C3C3C3" fill-opacity="1"/></g></g><g><path d="M79,110Q79.3928,110,79.7851,109.9807Q80.1774,109.9615,80.5683,109.923Q80.95920000000001,109.8845,81.3477,109.8268Q81.7362,109.7692,82.1214,109.6926Q82.5067,109.6159,82.8877,109.5205Q83.2687,109.4251,83.6446,109.311Q84.0204,109.197,84.3902,109.0647Q84.75999999999999,108.9324,85.1229,108.7821Q85.4858,108.6318,85.8409,108.4638Q86.1959,108.2959,86.5423,108.1107Q86.8887,107.9256,87.2256,107.7237Q87.5625,107.5217,87.8891,107.3035Q88.2157,107.0853,88.5312,106.8513Q88.8467,106.6173,89.1503,106.3682Q89.4539,106.119,89.7449,105.8552Q90.036,105.5914,90.3137,105.3137Q90.5914,105.036,90.8552,104.7449Q91.119,104.4539,91.3682,104.1503Q91.6173,103.84667,91.8513,103.53119Q92.0853,103.21571,92.3035,102.88912Q92.5217,102.56254,92.7236,102.22564Q92.9256,101.88875,93.1107,101.54235Q93.2959,101.19595,93.4638,100.84088Q93.6317,100.48581,93.7821,100.12293Q93.9324,99.76006,94.0647,99.39024Q94.197,99.02042,94.311,98.64456Q94.4251,98.26869,94.5205,97.88768Q94.6159,97.50668,94.6926,97.12144Q94.7692,96.73621,94.8268,96.34769Q94.8844,95.95916,94.923,95.56827Q94.9615,95.17739,94.9807,94.785083Q95,94.392778,95,94L135,94L135,130C135,134.4183,131.418,138,127,138L29,138C24.58172,138,21,134.4183,21,130L21,94L63,94Q63,94.392778,63.0193,94.785083Q63.0385,95.17739,63.077,95.56827Q63.1155,95.95916,63.1732,96.34769Q63.2308,96.73621,63.3074,97.12144Q63.3841,97.50668,63.4795,97.88768Q63.5749,98.26869,63.689,98.64456Q63.803,99.02042,63.9353,99.39024Q64.0676,99.76006,64.2179,100.12293Q64.3682,100.48581,64.53620000000001,100.84088Q64.7041,101.19595,64.88929999999999,101.54235Q65.0744,101.88875,65.27629999999999,102.22564Q65.47829999999999,102.56254,65.6965,102.88912Q65.91470000000001,103.21571,66.14869999999999,103.53119Q66.3827,103.84667,66.6318,104.1503Q66.881,104.4539,67.1448,104.7449Q67.4086,105.036,67.6863,105.3137Q67.964,105.5914,68.2551,105.8552Q68.5461,106.119,68.8497,106.3682Q69.1533,106.6173,69.4688,106.8513Q69.7843,107.0853,70.1109,107.3035Q70.4375,107.5217,70.7744,107.7237Q71.1112,107.9256,71.4576,108.1107Q71.8041,108.2959,72.1591,108.4638Q72.5142,108.6318,72.8771,108.7821Q73.2399,108.9324,73.6098,109.0647Q73.9796,109.197,74.3554,109.311Q74.7313,109.4251,75.1123,109.5205Q75.4933,109.6159,75.8786,109.6926Q76.2638,109.7692,76.6523,109.8268Q77.04079999999999,109.8845,77.4317,109.923Q77.8226,109.9615,78.2149,109.9807Q78.6072,110,79,110Z" fill-rule="evenodd" fill="#E5E5E5" fill-opacity="1"/><path d="M88.8995,103.89949Q84.799,108,79,108Q73.201,108,69.1005,103.89949Q65,99.79899,65,94Q65,93.9017463,64.9904,93.803966Q64.9807,93.706185,64.9616,93.609819Q64.94239999999999,93.513454,64.9139,93.419431Q64.8854,93.325408,64.8478,93.234633Q64.81020000000001,93.143859,64.7638,93.057207Q64.7175,92.97055,64.66290000000001,92.88886Q64.6084,92.80716,64.54599999999999,92.73121Q64.4837,92.65526,64.4142,92.58579Q64.3447,92.51631,64.2688,92.45398Q64.1928,92.39165,64.1111,92.33706Q64.02940000000001,92.28247,63.9428,92.23616Q63.8561,92.18984,63.7654,92.15224Q63.6746,92.11464,63.5806,92.08612Q63.4865,92.0576,63.3902,92.03843Q63.2938,92.01926,63.196,92.00963Q63.0983,92,63,92L21,92Q20.9017463,92,20.803966,92.00963Q20.706185,92.01926,20.609819,92.03843Q20.513454,92.0576,20.419431,92.08612Q20.325408,92.11464,20.234633,92.15224Q20.143859,92.18984,20.057207,92.23616Q19.97055,92.28247,19.88886,92.33706Q19.80716,92.39165,19.73121,92.45398Q19.65526,92.51631,19.58579,92.58579Q19.51631,92.65526,19.45398,92.73121Q19.39165,92.80716,19.33706,92.88886Q19.28247,92.97055,19.236159999999998,93.057207Q19.18984,93.143859,19.15224,93.234633Q19.11464,93.325408,19.08612,93.419431Q19.0576,93.513454,19.038429999999998,93.609819Q19.01926,93.706185,19.00963,93.803966Q19,93.9017463,19,94L19,130Q19,134.1421,21.928933,137.0711Q24.85786,140,29,140L127,140Q131.142,140,134.071,137.0711Q137,134.1421,137,130L137,94Q137,93.9017463,136.99,93.803966Q136.981,93.706185,136.962,93.609819Q136.942,93.513454,136.914,93.419431Q136.885,93.325408,136.848,93.234633Q136.81,93.143859,136.764,93.057207Q136.71800000000002,92.97055,136.663,92.88886Q136.608,92.80716,136.546,92.73121Q136.48399999999998,92.65526,136.414,92.58579Q136.345,92.51631,136.269,92.45398Q136.19299999999998,92.39165,136.111,92.33706Q136.029,92.28247,135.94299999999998,92.23616Q135.856,92.18984,135.765,92.15224Q135.675,92.11464,135.58100000000002,92.08612Q135.487,92.0576,135.39,92.03843Q135.29399999999998,92.01926,135.196,92.00963Q135.098,92,135,92L95,92Q94.9017,92,94.804,92.00963Q94.7062,92.01926,94.6098,92.03843Q94.5135,92.0576,94.4194,92.08612Q94.3254,92.11464,94.2346,92.15224Q94.1439,92.18984,94.0572,92.23616Q93.9705,92.28247,93.8888,92.33706Q93.8072,92.39165,93.7312,92.45398Q93.6553,92.51631,93.5858,92.58579Q93.5163,92.65526,93.454,92.73121Q93.3916,92.80716,93.3371,92.88886Q93.2825,92.97055,93.2362,93.057207Q93.1898,93.143859,93.1522,93.234633Q93.1146,93.325408,93.0861,93.419431Q93.0576,93.513454,93.0384,93.609819Q93.0193,93.706185,93.0096,93.803966Q93,93.9017463,93,94Q93,99.79899,88.8995,103.89949ZM63,94Q63,94.392778,63.0193,94.785083Q63.0385,95.17739,63.077,95.56827Q63.1155,95.95916,63.1732,96.34769Q63.2308,96.73621,63.3074,97.12144Q63.3841,97.50668,63.4795,97.88768Q63.5749,98.26869,63.689,98.64456Q63.803,99.02042,63.9353,99.39024Q64.0676,99.76006,64.2179,100.12293Q64.3682,100.48581,64.53620000000001,100.84088Q64.7041,101.19595,64.88929999999999,101.54235Q65.0744,101.88875,65.27629999999999,102.22564Q65.47829999999999,102.56254,65.6965,102.88912Q65.91470000000001,103.21571,66.14869999999999,103.53119Q66.3827,103.84667,66.6318,104.1503Q66.881,104.4539,67.1448,104.7449Q67.4086,105.036,67.6863,105.3137Q67.964,105.5914,68.2551,105.8552Q68.5461,106.119,68.8497,106.3682Q69.1533,106.6173,69.4688,106.8513Q69.7843,107.0853,70.1109,107.3035Q70.4375,107.5217,70.7744,107.7237Q71.1112,107.9256,71.4576,108.1107Q71.8041,108.2959,72.1591,108.4638Q72.5142,108.6318,72.8771,108.7821Q73.2399,108.9324,73.6098,109.0647Q73.9796,109.197,74.3554,109.311Q74.7313,109.4251,75.1123,109.5205Q75.4933,109.6159,75.8786,109.6926Q76.2638,109.7692,76.6523,109.8268Q77.04079999999999,109.8845,77.4317,109.923Q77.8226,109.9615,78.2149,109.9807Q78.6072,110,79,110Q79.3928,110,79.7851,109.9807Q80.1774,109.9615,80.5683,109.923Q80.95920000000001,109.8845,81.3477,109.8268Q81.7362,109.7692,82.1214,109.6926Q82.5067,109.6159,82.8877,109.5205Q83.2687,109.4251,83.6446,109.311Q84.0204,109.197,84.3902,109.0647Q84.75999999999999,108.9324,85.1229,108.7821Q85.4858,108.6318,85.8409,108.4638Q86.1959,108.2959,86.5423,108.1107Q86.8887,107.9256,87.2256,107.7237Q87.5625,107.5217,87.8891,107.3035Q88.2157,107.0853,88.5312,106.8513Q88.8467,106.6173,89.1503,106.3682Q89.4539,106.119,89.7449,105.8552Q90.036,105.5914,90.3137,105.3137Q90.5914,105.036,90.8552,104.7449Q91.119,104.4539,91.3682,104.1503Q91.6173,103.84667,91.8513,103.53119Q92.0853,103.21571,92.3035,102.88912Q92.5217,102.56254,92.7236,102.22564Q92.9256,101.88875,93.1107,101.54235Q93.2959,101.19595,93.4638,100.84088Q93.6317,100.48581,93.7821,100.12293Q93.9324,99.76006,94.0647,99.39024Q94.197,99.02042,94.311,98.64456Q94.4251,98.26869,94.5205,97.88768Q94.6159,97.50668,94.6926,97.12144Q94.7692,96.73621,94.8268,96.34769Q94.8844,95.95916,94.923,95.56827Q94.9615,95.17739,94.9807,94.785083Q95,94.392778,95,94L135,94L135,130C135,134.4183,131.418,138,127,138L29,138C24.58172,138,21,134.4183,21,130L21,94L63,94Z" fill-rule="evenodd" fill="#9A9A9A" fill-opacity="1"/></g></g></g></svg>